<svg xmlns="http://www.w3.org/2000/svg"  viewBox="0 0 100 100" width="25px" height="25px"><path fill="#1d1d1b" d="M16.5,85.995c-5.79,0-10.5-4.71-10.5-10.5v-47c0-5.79,4.71-10.5,10.5-10.5h71	c5.79,0,10.5,4.71,10.5,10.5v47c0,5.79-4.71,10.5-10.5,10.5H16.5z" opacity=".35"/><path fill="#f2f2f2" d="M14.5,83.995c-5.79,0-10.5-4.71-10.5-10.5v-47c0-5.79,4.71-10.5,10.5-10.5h71	c5.79,0,10.5,4.71,10.5,10.5v47c0,5.79-4.71,10.5-10.5,10.5H14.5z"/><path fill="#d9eeff" d="M10.5,26.5v47c0,2.209,1.791,4,4,4h71c2.209,0,4-1.791,4-4v-47c0-2.209-1.791-4-4-4h-71	C12.291,22.5,10.5,24.291,10.5,26.5z"/><circle cx="61.5" cy="50" r="17.5" fill="#f9b84f"/><circle cx="38.5" cy="50" r="17.5" fill="#de5147"/><ellipse cx="50" cy="50" fill="#ef8630" rx="6" ry="13.169"/><path fill="#40396e" d="M85.5,79h-71C11.468,79,9,76.533,9,73.5v-47c0-3.032,2.468-5.5,5.5-5.5h71c3.032,0,5.5,2.468,5.5,5.5	v47C91,76.533,88.532,79,85.5,79z M14.5,24c-1.379,0-2.5,1.121-2.5,2.5v47c0,1.379,1.121,2.5,2.5,2.5h71c1.379,0,2.5-1.121,2.5-2.5	v-47c0-1.379-1.121-2.5-2.5-2.5H14.5z"/></svg>